{"asset":{"version":"2.0","generator":"VECTARY"},"nodes":[{"translation":[0.3763885305892029,0,0],"scale":[1,1,1],"rotation":[0,0,0,1],"name":"VS3dLogo-dimension 1","children":[1]},{"translation":[-0.05085386335849762,0.002097704913467169,0.05287959799170494],"scale":[0.9565929770469666,0.9565929770469666,0.9565929770469666],"rotation":[0,0,0,0.9999999999999998],"name":"Project Name","children":[2]},{"translation":[0.24810375273227692,-0.0011726492084562778,0.30208954215049744],"scale":[0.0010000000474974513,0.001000000379710208,0.001000000379710208],"rotation":[0.9999959816435786,-2.0142784437080654e-17,-7.105398805461369e-15,-0.0028349068231073083],"name":"VS LOGO","children":[3,4,5,6,7,8]},{"translation":[13.449600219726562,9.303752899169922,90.11259460449219],"scale":[1.0127274990081787,1.0127274305012415,1.0127274305012415],"rotation":[0.7071067690849311,0,0,0.7071067932881638],"name":"Coin","mesh":0},{"translation":[-38.517189025878906,16.488861083984375,73.6290283203125],"scale":[2.623738,2.62,2.623738],"rotation":[0,0,0,1],"name":"3D V - V 1","mesh":1},{"translation":[65.06314460292933,16.488861083984368,73.62902832031102],"scale":[-2.623738,1.306729,2.623738],"rotation":[0,0,0,1],"name":"3D V - V","mesh":2},{"translation":[47.618817545183234,16.503574371337884,9.046371459959984],"scale":[-2.626797,1.3067341558053926,2.626797],"rotation":[0,0,0,1],"name":"3D S - S 1","mesh":3},{"translation":[-19.49629783630371,0.7252493879293325,9.135832700729171],"scale":[2.6267971992492676,1.306734254924519,2.6267971992492676],"rotation":[0,0,0,1],"name":"3D S - S","mesh":4},{"translation":[0,0,0],"scale":[1,1,1],"rotation":[0,0,0,1],"name":"Untitled-2 2","children":[9]},{"translation":[13.822250366210938,16.291954040527344,107.69364929199219],"scale":[0.543782114982605,0.5437821121047339,0.5437821121047339],"rotation":[0.7050993442429009,0,0,0.7091085352385988],"name":"Path","mesh":5}],"materials":[{"pbrMetallicRoughness":{"baseColorFactor":[0,0,0,1],"metallicFactor":0,"roughnessFactor":0.20000000298023224},"name":"Phantom 2","emissiveFactor":[0,0,0],"extensions":{},"alphaMode":"OPAQUE","doubleSided":true},{"pbrMetallicRoughness":{"baseColorFactor":[0.8433697223663331,0.9322768449783326,0.97430020570755,1],"metallicFactor":0,"roughnessFactor":0.20000000298023224},"name":"Happy Days 3","emissiveFactor":[0,0,0],"extensions":{},"alphaMode":"OPAQUE","doubleSided":true},{"pbrMetallicRoughness":{"baseColorFactor":[0.8433697223663331,0.9322768449783326,0.97430020570755,1],"metallicFactor":0,"roughnessFactor":0.20000000298023224},"name":"Happy Days 4","emissiveFactor":[0,0,0],"extensions":{},"alphaMode":"OPAQUE","doubleSided":true},{"pbrMetallicRoughness":{"baseColorFactor":[0.8433697223663331,0.9322768449783326,0.97430020570755,1],"metallicFactor":0,"roughnessFactor":0.20000000298023224},"name":"Happy Days 6","emissiveFactor":[0,0,0],"extensions":{},"alphaMode":"OPAQUE","doubleSided":true},{"pbrMetallicRoughness":{"baseColorFactor":[0.8433697223663331,0.9322768449783326,0.97430020570755,1],"metallicFactor":0,"roughnessFactor":0.20000000298023224},"name":"Happy Days 5","emissiveFactor":[0,0,0],"extensions":{},"alphaMode":"OPAQUE","doubleSided":true},{"pbrMetallicRoughness":{"baseColorFactor":[0.8831796646118163,0.10363409668207166,0.10114516317844391,1],"metallicFactor":0,"roughnessFactor":1},"name":" 1","emissiveFactor":[0,0,0],"extensions":{},"alphaMode":"OPAQUE","doubleSided":true}],"meshes":[{"primitives":[{"mode":4,"attributes":{"POSITION":1,"NORMAL":2,"TEXCOORD_0":3},"material":0,"indices":0}]},{"primitives":[{"mode":4,"attributes":{"POSITION":5,"NORMAL":6,"TEXCOORD_0":7},"material":1,"indices":4}]},{"primitives":[{"mode":4,"attributes":{"POSITION":9,"NORMAL":10,"TEXCOORD_0":11},"material":2,"indices":8}]},{"primitives":[{"mode":4,"attributes":{"POSITION":13,"NORMAL":14,"TEXCOORD_0":15},"material":3,"indices":12}]},{"primitives":[{"mode":4,"attributes":{"POSITION":17,"NORMAL":18,"TEXCOORD_0":19},"material":4,"indices":16}]},{"primitives":[{"mode":4,"attributes":{"POSITION":21,"NORMAL":22,"TEXCOORD_0":23},"material":5,"indices":20}]}],"accessors":[{"bufferView":0,"byteOffset":0,"componentType":5125,"count":6912,"type":"SCALAR"},{"bufferView":1,"byteOffset":0,"componentType":5126,"count":1302,"max":[101.5,101.5,16.600000381469727],"min":[-101.5,-101.5,0],"type":"VEC3"},{"bufferView":2,"byteOffset":0,"componentType":5126,"count":1302,"type":"VEC3"},{"bufferView":3,"byteOffset":0,"componentType":5126,"count":1302,"type":"VEC2"},{"bufferView":4,"byteOffset":0,"componentType":5125,"count":4152,"type":"SCALAR"},{"bufferView":5,"byteOffset":0,"componentType":5126,"count":2778,"max":[37.75,2.078838022337155e-15,33.95000076293945],"min":[1,-12,0.09999999403953552],"type":"VEC3"},{"bufferView":6,"byteOffset":0,"componentType":5126,"count":2778,"type":"VEC3"},{"bufferView":7,"byteOffset":0,"componentType":5126,"count":2778,"type":"VEC2"},{"bufferView":8,"byteOffset":0,"componentType":5125,"count":4152,"type":"SCALAR"},{"bufferView":9,"byteOffset":0,"componentType":5126,"count":2778,"max":[37.75,2.078838022337155e-15,33.95000076293945],"min":[1,-12,0.09999999403953552],"type":"VEC3"},{"bufferView":10,"byteOffset":0,"componentType":5126,"count":2778,"type":"VEC3"},{"bufferView":11,"byteOffset":0,"componentType":5126,"count":2778,"type":"VEC2"},{"bufferView":12,"byteOffset":0,"componentType":5125,"count":3093,"type":"SCALAR"},{"bufferView":13,"byteOffset":0,"componentType":5126,"count":2054,"max":[24.350000381469727,2.143131846440256e-15,35],"min":[1,-12,0],"type":"VEC3"},{"bufferView":14,"byteOffset":0,"componentType":5126,"count":2054,"type":"VEC3"},{"bufferView":15,"byteOffset":0,"componentType":5126,"count":2054,"type":"VEC2"},{"bufferView":16,"byteOffset":0,"componentType":5125,"count":3093,"type":"SCALAR"},{"bufferView":17,"byteOffset":0,"componentType":5126,"count":2054,"max":[24.350000381469727,2.143131846440256e-15,35],"min":[1,-12,0],"type":"VEC3"},{"bufferView":18,"byteOffset":0,"componentType":5126,"count":2054,"type":"VEC3"},{"bufferView":19,"byteOffset":0,"componentType":5126,"count":2054,"type":"VEC2"},{"bufferView":20,"byteOffset":0,"componentType":5125,"count":2868,"type":"SCALAR"},{"bufferView":21,"byteOffset":0,"componentType":5126,"count":1440,"max":[191.55999755859375,161.52999877929688,50.20000076293945],"min":[-191.55999755859375,-130.1199951171875,0.19999998807907104],"type":"VEC3"},{"bufferView":22,"byteOffset":0,"componentType":5126,"count":1440,"type":"VEC3"},{"bufferView":23,"byteOffset":0,"componentType":5126,"count":1440,"type":"VEC2"}],"bufferViews":[{"buffer":0,"byteOffset":0,"byteLength":27648,"target":34963},{"buffer":0,"byteOffset":27648,"byteLength":15624,"target":34962},{"buffer":0,"byteOffset":43272,"byteLength":15624,"target":34962},{"buffer":0,"byteOffset":58896,"byteLength":10416,"target":34962},{"buffer":0,"byteOffset":69312,"byteLength":16608,"target":34963},{"buffer":0,"byteOffset":85920,"byteLength":33336,"target":34962},{"buffer":0,"byteOffset":119256,"byteLength":33336,"target":34962},{"buffer":0,"byteOffset":152592,"byteLength":22224,"target":34962},{"buffer":0,"byteOffset":174816,"byteLength":16608,"target":34963},{"buffer":0,"byteOffset":191424,"byteLength":33336,"target":34962},{"buffer":0,"byteOffset":224760,"byteLength":33336,"target":34962},{"buffer":0,"byteOffset":258096,"byteLength":22224,"target":34962},{"buffer":0,"byteOffset":280320,"byteLength":12372,"target":34963},{"buffer":0,"byteOffset":292692,"byteLength":24648,"target":34962},{"buffer":0,"byteOffset":317340,"byteLength":24648,"target":34962},{"buffer":0,"byteOffset":341988,"byteLength":16432,"target":34962},{"buffer":0,"byteOffset":358420,"byteLength":12372,"target":34963},{"buffer":0,"byteOffset":370792,"byteLength":24648,"target":34962},{"buffer":0,"byteOffset":395440,"byteLength":24648,"target":34962},{"buffer":0,"byteOffset":420088,"byteLength":16432,"target":34962},{"buffer":0,"byteOffset":436520,"byteLength":11472,"target":34963},{"buffer":0,"byteOffset":447992,"byteLength":17280,"target":34962},{"buffer":0,"byteOffset":465272,"byteLength":17280,"target":34962},{"buffer":0,"byteOffset":482552,"byteLength":11520,"target":34962}],"scene":0,"scenes":[{"nodes":[0],"name":"Project Name"}],"extensionsUsed":["KHR_texture_transform"],"buffers":[{"byteLength":494072,"uri":"ProjectName.bin"}]}